<?xml version="1.0" encoding="UTF-8"?>
<!DOCTYPE svg PUBLIC "-//W3C//DTD SVG 1.0//EN" "http://www.w3.org/TR/2001/REC-SVG-20010904/DTD/svg10.dtd">
<!-- Creator: CorelDRAW 2021 (64-Bit) -->
<svg xmlns="http://www.w3.org/2000/svg" xml:space="preserve" width="400mm" height="80mm" version="1.0" style="shape-rendering:geometricPrecision; text-rendering:geometricPrecision; image-rendering:optimizeQuality; fill-rule:evenodd; clip-rule:evenodd"
viewBox="0 0 40000 8000"
 xmlns:xlink="http://www.w3.org/1999/xlink"
 xmlns:xodm="http://www.corel.com/coreldraw/odm/2003">
 <defs>
  <style type="text/css">
   <![CDATA[
    .fil0 {fill:#1068C8;fill-rule:nonzero}
   ]]>
  </style>
 </defs>
 <g id="Layer_x0020_1">
  <metadata id="CorelCorpID_0Corel-Layer"/>
  <g id="spentura_logo.svg">
   <g>
    <path class="fil0" d="M24670.75 1198.62c0,432.51 -12.65,483.1 -134.05,574.15 -55.65,43 -118.88,55.64 -285.81,63.23l-212.46 7.58 0 414.81 0 414.81 265.58 0 265.58 0 0 966.19c0,533.68 12.64,1047.12 25.29,1145.76 48.06,323.76 227.64,604.5 467.92,728.44 192.22,96.12 341.45,121.4 816.96,136.58l460.33 15.18 0 -422.39 0 -419.86 -354.1 0 -354.1 0 0 -1074.96 0 -1074.95 379.4 0 379.39 0 0 -417.33 0 -417.33 -379.39 0 -379.4 0 0 -518.5 0 -518.5 -480.57 0 -480.56 0 0 397.1 -0.01 -0.01z"/>
    <path class="fil0" d="M3399.41 892.57c-738.55,93.58 -1317.76,369.28 -1800.85,854.9 -1330.41,1340.52 -1049.66,3576.42 576.67,4560.31 503.33,303.51 1173.59,452.74 1755.33,389.51 1292.47,-139.11 2296.6,-1049.66 2569.76,-2334.54 60.7,-285.81 60.7,-842.25 0,-1128.06 -252.93,-1183.71 -1145.77,-2076.55 -2301.66,-2294.06 -214.99,-40.47 -647.49,-65.76 -799.25,-48.06l0 0zm632.32 1340.53c462.86,58.17 991.48,240.28 1120.48,384.45 96.12,106.23 43,116.35 -460.33,91.05 -913.08,-42.99 -1092.66,-27.82 -976.31,91.06 27.83,25.29 245.34,149.23 480.57,273.16 811.9,422.39 1019.3,601.97 963.66,824.55 -70.83,285.81 -1492.29,1148.3 -2428.13,1472.05 -212.45,73.35 -303.51,75.88 -419.86,12.65 -202.34,-108.76 -268.1,-457.8 -121.4,-677.85 83.47,-128.99 222.57,-192.22 842.25,-399.63 533.68,-177.04 816.96,-306.04 900.43,-414.8 129,-161.88 -40.46,-376.87 -748.67,-938.37 -389.51,-308.58 -533.68,-442.63 -586.79,-541.27 -35.41,-68.29 -35.41,-75.87 22.76,-131.52 32.88,-35.41 111.29,-73.35 172,-85.99 156.81,-32.88 854.9,-10.12 1239.35,40.46l-0.01 0z"/>
    <path class="fil0" d="M8748.86 1787.94c-713.25,144.17 -1155.88,723.38 -1052.19,1386.05 68.3,455.27 313.63,723.38 809.38,895.37 78.41,25.29 336.39,75.87 579.21,108.75 556.44,80.94 652.55,129 677.84,333.87 25.3,207.41 -123.93,354.1 -402.16,386.98 -369.28,43 -768.9,-88.52 -1047.12,-346.51l-134.05 -123.94 -318.7 321.23 -318.69 318.69 197.29 169.46c275.7,235.22 627.27,404.68 945.96,460.33 288.34,50.59 816.96,37.94 1049.65,-25.29 252.93,-68.29 556.45,-232.7 705.68,-379.4 260.51,-263.05 356.63,-510.91 338.92,-900.43 -7.59,-212.46 -20.23,-265.57 -91.05,-409.74 -189.7,-386.98 -548.86,-574.15 -1295,-677.85 -442.63,-60.7 -584.27,-111.29 -642.44,-225.1 -48.06,-88.53 -53.12,-227.64 -10.12,-316.16 37.94,-86 202.34,-161.88 389.51,-182.11 278.23,-30.35 728.44,141.64 905.49,341.45l50.58 55.64 311.11 -311.1c171.99,-169.46 311.1,-318.69 311.1,-326.28 0,-7.58 -83.46,-80.93 -182.1,-161.87 -235.23,-187.17 -528.63,-326.28 -801.79,-376.87 -222.58,-42.99 -794.2,-50.59 -976.31,-15.18l0 0.01z"/>
    <path class="fil0" d="M13372.41 1787.94c-275.7,63.23 -561.51,298.46 -667.73,538.74 -32.88,78.41 -68.29,144.17 -78.41,144.17 -12.65,0 -20.23,-141.64 -20.23,-316.16l0 -316.16 -543.8 0 -543.79 0 5.06 2635.52 7.58 2638.05 538.74 7.58 536.22 5.06 0 -1049.65c0,-576.68 7.58,-1049.66 20.23,-1049.66 10.11,0 42.99,55.64 75.87,123.93 88.53,197.29 260.52,369.28 475.51,472.98 166.93,83.47 212.46,96.11 435.04,106.23 938.37,43 1456.87,-576.67 1515.05,-1810.97 55.64,-1196.36 -343.99,-1965.26 -1100.24,-2127.14 -149.23,-30.34 -528.63,-32.88 -655.09,-2.53l-0.01 0.01zm232.69 895.37c146.7,65.76 275.69,202.34 351.57,366.75 48.06,103.7 53.11,171.99 60.71,637.38 7.58,422.39 0,548.86 -32.88,662.67 -70.83,247.87 -240.29,424.93 -478.04,498.27 -209.94,65.76 -586.79,-15.18 -746.14,-159.34 -32.88,-30.35 -80.94,-101.17 -106.23,-156.82 -43,-91.05 -48.06,-174.52 -48.06,-791.66 0,-779.03 5.06,-806.85 194.76,-963.66 194.75,-161.88 569.09,-204.87 804.31,-93.59l0 0z"/>
    <path class="fil0" d="M17085.4 1790.47c-531.15,103.7 -913.07,394.57 -1140.71,870.08 -154.28,318.69 -204.87,543.8 -222.57,966.19 -40.47,1062.3 366.74,1745.21 1203.94,2025.96 177.04,60.71 232.69,65.76 612.08,68.29 311.11,0 462.86,-10.11 594.39,-42.99 366.75,-88.53 720.85,-275.7 920.66,-483.1l85.99 -91.06 -260.51 -323.75c-144.17,-177.05 -265.58,-328.81 -268.11,-333.87 -5.06,-5.06 -78.4,55.65 -166.93,134.05 -298.45,273.17 -604.5,361.69 -999.06,293.4 -381.92,-63.23 -581.74,-295.93 -622.21,-728.44l-12.65 -131.52 1236.83 0 1239.35 0 -15.18 -336.39c-37.94,-733.5 -199.81,-1155.88 -584.27,-1507.46 -308.57,-283.28 -677.85,-409.74 -1183.71,-404.68 -169.46,2.53 -356.63,12.64 -417.33,25.29zm720.85 804.31c199.81,91.06 321.22,306.05 354.1,624.74l17.71 161.87 -685.44 0 -687.97 0 15.17 -121.4c48.06,-381.92 197.29,-609.55 455.28,-687.97 134.05,-40.46 419.86,-27.82 531.15,22.76l0 0z"/>
    <path class="fil0" d="M21863.24 1798.06c-63.23,17.7 -156.82,50.59 -207.41,75.87 -128.99,63.23 -359.15,311.11 -440.09,478.04 -37.94,78.41 -78.41,136.58 -91.05,129 -10.12,-7.59 -20.24,-154.29 -20.24,-328.81l0 -313.63 -531.15 0 -531.14 0 0 1909.61 0 1909.62 531.14 0 531.15 0 0 -1295c0,-1262.11 2.53,-1297.53 53.12,-1403.76 111.28,-232.7 364.21,-351.57 693.02,-331.34 295.93,20.24 417.33,146.7 467.92,493.22 12.65,93.58 25.3,703.14 25.3,1353.17l0 1183.71 533.67 0 531.15 0 -7.58 -1411.35c-10.12,-1355.7 -12.65,-1416.4 -65.76,-1606.1 -126.47,-452.74 -369.28,-728.43 -741.08,-837.19 -159.35,-48.06 -566.56,-50.59 -730.97,-5.06z"/>
    <path class="fil0" d="M35306.42 1803.11c-303.51,65.76 -528.62,192.23 -763.85,427.45 -116.34,113.82 -209.93,220.05 -209.93,235.22 0,12.65 139.11,149.23 308.57,303.51l308.58 275.7 136.58 -146.7c171.99,-187.17 343.99,-273.16 579.21,-293.4 235.22,-20.23 384.45,5.07 508.38,86 161.88,106.23 217.52,227.63 227.64,518.5l10.11 247.87 -475.5 0c-533.68,2.53 -766.38,32.88 -1034.48,139.11 -318.69,126.46 -521.03,306.04 -639.91,566.56 -53.11,116.35 -68.29,189.69 -75.88,419.86 -10.11,237.75 -2.53,300.99 45.53,440.09 159.34,472.98 531.15,710.74 1110.35,710.74 594.39,0 958.61,-232.7 1125.54,-718.32 22.76,-65.76 50.59,-30.35 103.7,131.52 58.17,182.11 174.52,326.28 341.45,419.86 136.59,75.88 146.7,78.41 538.75,88.52l397.09 7.59 0 -419.86 0 -419.86 -174.52 0 -174.52 0 -12.65 -981.37c-10.12,-801.79 -17.7,-1004.13 -53.11,-1125.53 -129,-460.34 -429.98,-753.73 -918.13,-892.85 -212.46,-60.7 -968.72,-73.35 -1209.01,-20.23l0.01 0.02zm1029.42 2261.19l75.87 0 -10.11 308.58c-7.59,280.75 -12.65,318.69 -68.29,397.1 -35.41,50.58 -118.88,111.28 -202.34,151.76 -189.7,85.99 -546.33,96.11 -682.91,15.17 -139.12,-80.93 -189.7,-169.46 -199.81,-354.1 -25.3,-397.1 235.22,-564.03 827.07,-528.62 103.7,5.06 220.05,10.11 260.52,10.11z"/>
    <path class="fil0" d="M27098.87 2981.77c0,629.79 12.65,1282.34 25.3,1451.81 25.29,341.45 106.23,637.38 222.57,819.49 106.23,166.93 313.63,343.98 480.57,407.21 174.52,65.76 566.56,93.59 761.31,50.59 313.63,-68.29 581.74,-270.63 705.67,-538.74 37.95,-80.94 75.88,-146.7 88.53,-146.7 10.11,0 17.7,141.64 17.7,316.16l0 316.16 543.8 0 543.79 0 0 -1909.61 0 -1909.62 -543.79 0 -543.8 0 0 1302.59c0,1454.34 5.06,1406.28 -174.52,1560.57 -141.65,121.41 -341.46,182.11 -546.33,164.41 -217.52,-15.18 -318.69,-83.47 -409.75,-265.58l-70.82 -144.16 -7.58 -1310.18 -7.59 -1307.64 -541.26 0 -543.8 0 0 1143.24 0 0z"/>
    <path class="fil0" d="M31474.54 3748.14l0 1909.62 543.8 0 543.79 0 0 -1196.36c0,-1188.77 0,-1196.35 58.18,-1307.64 60.7,-121.41 171.99,-209.94 318.69,-255.46 50.59,-15.18 252.93,-40.47 452.74,-55.65l359.15 -27.82 0 -488.15 0 -488.16 -144.16 0c-483.1,2.53 -827.08,250.4 -968.72,695.56 -63.23,199.81 -75.88,149.23 -75.88,-273.16l0 -422.4 -543.79 0 -543.8 0 0 1909.62 0 0z"/>
   </g>
  </g>
  <path class="fil0" d="M38513.96 790.67c66.63,0 130.49,16.61 191.58,50.01 61.26,33.23 109.37,80.99 144.33,143.12 34.96,62.13 52.44,127.2 52.44,195.21 0,67.67 -17.13,132.05 -51.4,193.48 -34.44,61.27 -82.2,109.03 -143.47,143.47 -61.43,34.27 -125.81,51.4 -193.48,51.4 -67.66,0 -132.04,-17.13 -193.48,-51.4 -61.26,-34.44 -109.03,-82.2 -143.46,-143.47 -34.27,-61.43 -51.4,-125.81 -51.4,-193.48 0,-68.01 17.48,-133.08 52.43,-195.21 34.96,-62.13 83.07,-109.89 144.34,-143.12 61.09,-33.4 124.95,-50.01 191.57,-50.01zm0.35 76.84c-53.48,0 -104.7,13.32 -153.68,39.97 -48.97,26.65 -87.57,64.9 -115.78,114.91 -28.2,49.85 -42.39,102.28 -42.39,156.8 0,54.34 13.84,106.26 41.36,155.4 27.51,49.33 65.93,87.75 115.25,115.44 49.33,27.69 101.07,41.53 155.24,41.53 54.34,0 106.09,-13.84 155.23,-41.53 49.33,-27.69 87.75,-66.11 115.44,-115.44 27.68,-49.14 41.53,-101.06 41.53,-155.4 0,-54.52 -14.19,-106.95 -42.4,-156.8 -28.21,-50.01 -66.8,-88.26 -115.95,-114.91 -49.32,-26.65 -100.55,-39.97 -153.85,-39.97zm-175.83 519.18l0 -411.19 83.42 0c78.22,0 122.18,0.34 131.52,1.03 27.69,2.25 49.15,7.79 64.55,16.44 15.23,8.48 28.04,21.64 38.42,39.46 10.21,17.65 15.4,37.38 15.4,58.84 0,29.77 -9.69,55.04 -29.07,76.15 -19.38,21.11 -46.55,34.09 -81.51,39.28 12.46,4.68 22.15,9.87 28.9,15.41 6.75,5.53 16.09,16.09 27.86,31.49 3.12,4.16 13.15,20.77 30.46,50.19l48.28 82.9 -103.83 0 -34.09 -66.98c-23.02,-44.82 -42.06,-73.2 -57.11,-84.8 -15.23,-11.59 -34.27,-17.48 -57.46,-17.48l-21.63 0 0 169.26 -84.11 0zm84.11 -234.67l33.74 0c48.11,0 78.05,-1.91 89.65,-5.54 11.59,-3.64 20.77,-10.04 27.52,-19.21 6.75,-9.17 10.03,-19.56 10.03,-31.32 0,-11.25 -3.28,-21.46 -9.86,-30.29 -6.58,-8.83 -15.92,-15.23 -28.04,-19.04 -12.11,-3.8 -41.88,-5.71 -89.3,-5.71l-33.74 0 0 111.11z"/>
 </g>
</svg>
